# xmcd
# Track frame offsets:
# 150
# 11055
# 30438
# 49719
# 66994
# 82112
# 98587
# 117639
# 133695
# 152917
# 170554
# 188536
# 205233
# 222541
# 240952
#
# Disc length: 3546 seconds
# Revision: 0
# Processed by: cddbd v1.5.1PL0 Copyright (c) Steve Scherf et al.
# Submitted via: VisiTrax 2.9.10.228 - For more info visit www.synapsa.com
#
DISCID=cf0dd80f
DTITLE=Various Artist - CB60315
DYEAR=1900
DGENRE=Karaoke
TTITLE0=Byrd, Tracy - Drinkin' Bone
TTITLE1=Wills, Mark - And The Crowd Goes Wild
TTITLE2=Dalley, Amy - I Think You're Beautiful
TTITLE3=Strait, George - Cowboys Like Us
TTITLE4=Sawyer Brown - I'll Be Around
TTITLE5=McEntire, Reba - I'm Gonna Take That Mountain
TTITLE6=Keith, Toby - I Love This Bar
TTITLE7=Wolf, Brad - Strictly Business
TTITLE8=Wynonna - Heaven Help Me
TTITLE9=Brooks and Dunn  - You Can't Take The Honky Tonk Out Of The
TTITLE10=Paisley, Brad - Little Moments
TTITLE11=Dean, Roxie - Everyday Girl
TTITLE12=Worley, Darryl - I Need A Breather
TTITLE13=Lynne, Shelby - Telephone
TTITLE14=Lonestar - Walking In Memphis\t 
EXTD=
EXTT0=
EXTT1=
EXTT2=
EXTT3=
EXTT4=
EXTT5=
EXTT6=
EXTT7=
EXTT8=
EXTT9=
EXTT10=
EXTT11=
EXTT12=
EXTT13=
EXTT14=
PLAYORDER=
